<svg version="1.2" xmlns="http://www.w3.org/2000/svg" viewBox="0 0 4000 4000" width="4000" height="4000">
	<title>expedition-ai</title>
	<style>
		.s0 { fill: #fefefe } 
	</style>
	<g id="Right">
		<g id="R">
			<g id="&lt;Group&gt;">
				<g id="&lt;Group&gt;">
					<path id="&lt;Path&gt;" class="s0" d="m395.6 2344.4l-305.9 366.2h-19.3l298-406.7 169.1-48 379.9-303.1 325.4-642.7 156 103.3 362.5-400 238.7-559.4 461.3 642.3 103.3 436 26.2 27.5-32.9-3.2-56.8 14.8-5.3-5.4-90.7-451.1-393.7-572.9-211.8 497.5-396 427.9-146.5-87.1-303.1 609.2-403.2 316.2z"/>
					<path id="&lt;Path&gt;" class="s0" d="m3930.5 2710.6h-24.4l-431.2-452.7-535.3-224.9-192.2-205.8 62.2-38.2 178.4 187 519.4 216.9z"/>
				</g>
			</g>
			<g id="&lt;Group&gt;">
				<path id="&lt;Compound Path&gt;" fill-rule="evenodd" class="s0" d="m2810.7 1655.1l-32.1 84.9-161.9 99.4-308.1 378.8-157.6 413.6 111.8 38 35.1 40.8h-235.8l-103.1-368.5 127-215.3-158.8 190.9-413.7 58.1-229.3 250.9 80.6 32 37.5 51.9h-249.4l-27.4-43.3 187.5-609.9-78.6-21 347.1-232.3 383.4 4.1 189.2-86 408.5-106.9 209.4 20.8zm-312.2 85.4l-64.7-9.7-1.5-32.9 53.2-41.5-69.2 33.8-4.8 56.1zm141.5-95l-38-5-39.2 24 26.5-3.8 27.9 6.4z"/>
			</g>
			<path id="&lt;Path&gt;" class="s0" d="m3629.4 1363l-60.9-41.5-27.7 366.3-27.6-366.4-60.9 41.6 42-61.6-229-26.9 229-27-42-61.6 60.9 41.6 27.6-366.4 27.7 366.4 60.9-41.6-42.1 61.6 229.1 27-229.1 26.9z"/>
			<g id="&lt;Group&gt;">
				<path id="&lt;Path&gt;" class="s0" d="m1528.1 2403l222.3-31.1-11.3 256.4 80.5 40.8 27 41.5h-211.4l-119-294.1z"/>
				<path id="&lt;Path&gt;" class="s0" d="m2333.9 2233.1l20-25.7-97.8 402.5 109.5 47.1 39.5 53.6h-69l-56.5-65.7-90.8-30.8z"/>
			</g>
			<g id="&lt;Group&gt;">
				<path id="&lt;Compound Path&gt;" class="s0" d="m388.1 3117.7v56.4h-354.6l-33.5-34v-323.9l33.5-34h354.6v56.4h-331.7v111.1h332.2v56.9h-332.2v111.1z"/>
				<path id="&lt;Compound Path&gt;" class="s0" d="m859.9 3025.6v148.5h-56.4v-167.5h-275.3v167.5h-56.4v-148.5l47.5-47.4-47.5-47.5v-148.5h56.4v167.5h275.3v-167.5h56.4v148.5l-47.5 47.5z"/>
				<path id="&lt;Compound Path&gt;" fill-rule="evenodd" class="s0" d="m1331.7 2816.2v156.4l-33.5 34h-298.7v167.5h-56.4v-391.9h355.1zm-332.2 133.4h275.8v-111.1h-275.8z"/>
				<path id="&lt;Compound Path&gt;" class="s0" d="m1802.9 3117.7v56.4h-354.5l-33.5-34v-323.9l33.5-34h354.5v56.4h-331.6v111.1h332.2v56.9h-332.2v111.1z"/>
				<path id="&lt;Compound Path&gt;" fill-rule="evenodd" class="s0" d="m2288.7 2816.2v323.9l-34.1 34h-354.5v-391.9h354.5zm-331.6 301.5h274.7v-279.2h-274.7z"/>
				<path id="&lt;Compound Path&gt;" class="s0" d="m2385.3 2782.2h56.4v391.9h-56.4z"/>
				<path id="&lt;Compound Path&gt;" class="s0" d="m2915.2 2781.6v57h-164.7v335h-56.4v-335.6l-169.2 0.6v-56.4z"/>
				<path id="&lt;Compound Path&gt;" class="s0" d="m2998.4 2782.2h56.4v391.9h-56.4z"/>
				<path id="&lt;Compound Path&gt;" fill-rule="evenodd" class="s0" d="m3526.6 2816.2v323.9l-33.5 34h-321.6l-33.5-34v-323.9l33.5-34h321.6zm-332.3 301.5h275.9v-279.2h-275.9z"/>
				<path id="&lt;Compound Path&gt;" class="s0" d="m4000.1 2816.2v359.1h-56.4v-336.7h-277.5v335.5h-56.4v-391.9h356.2z"/>
			</g>
			<g id="&lt;Group&gt;">
				<path id="&lt;Compound Path&gt;" class="s0" d="m584.8 3345.6c-8.9-15-20.4-22.7-38.6-22.7-19.1 0-40.2 13.1-40.2 34.2 0 18.8 18.5 28.7 33.5 34.4l17.3 6.7c34.1 13.4 59.6 32.3 59.6 72.5 0 43.7-33.8 74.9-76.9 74.9-38.9 0-69.2-28.7-74.3-67.3l30.3-6.4c-0.3 26.5 20.7 45.7 46.6 45.7 25.8 0 44.3-21.7 44.3-46.9 0-25.9-20.7-37-41.5-45.7l-16.5-7c-27.5-11.8-52.4-27.4-52.4-60.9 0-38.9 34.5-62.2 70.9-62.2 26.8 0 48.8 13 61.9 36.3z"/>
				<path id="&lt;Compound Path&gt;" class="s0" d="m1020.3 3540.5h-29.9v-213.1h-57.2v-27.4h144.3v27.4h-57.2z"/>
				<path id="&lt;Compound Path&gt;" class="s0" d="m1433.2 3300v142c0 39.2 11.8 75.6 58.1 75.6 46.2 0 58.1-36.4 58.1-75.6v-142h29.9v152.2c0 52.9-32.8 93.4-88 93.4-55.2 0-88.1-40.5-88.1-93.4v-152.2z"/>
				<path id="&lt;Compound Path&gt;" fill-rule="evenodd" class="s0" d="m1924.6 3300h49.7c73.7 0 135 38.9 135 119 0 82-60 121.5-135.9 121.5h-48.8zm30 213.2h10.5c61.3 0 114.2-23 114.2-92.9 0-70.2-52.9-92.8-114.2-92.8h-10.5z"/>
				<path id="&lt;Compound Path&gt;" class="s0" d="m2444.6 3300h30v240.5h-30z"/>
				<path id="&lt;Compound Path&gt;" fill-rule="evenodd" class="s0" d="m3061.1 3420.3c0 71.4-56.5 125.3-126.1 125.3-69.5 0-126-53.9-126-125.3 0-69 57.1-125.4 126-125.4 69 0 126.1 56.4 126.1 125.4zm-30 0c0-53-39.6-97.4-96.1-97.4-56.4 0-96 44.4-96 97.4 0 54.8 44 97.3 96 97.3 52 0 96.1-42.5 96.1-97.3z"/>
				<path id="&lt;Compound Path&gt;" class="s0" d="m3503.3 3345.6c-8.9-15-20.4-22.7-38.6-22.7-19.2 0-40.2 13.1-40.2 34.2 0 18.8 18.5 28.7 33.5 34.4l17.2 6.7c34.1 13.4 59.7 32.3 59.7 72.5 0 43.7-33.8 74.9-76.9 74.9-38.9 0-69.3-28.7-74.4-67.3l30.3-6.4c-0.3 26.5 20.8 45.7 46.6 45.7 25.9 0 44.4-21.7 44.4-46.9 0-25.9-20.8-37-41.5-45.7l-16.6-7c-27.4-11.8-52.3-27.4-52.3-60.9 0-38.9 34.4-62.2 70.8-62.2 26.8 0 48.8 13 61.9 36.3z"/>
			</g>
		</g>
	</g>
</svg>