<svg version="1.2" xmlns="http://www.w3.org/2000/svg" viewBox="0 0 4000 4000" width="4000" height="4000">
	<title>expedition-ai</title>
	<style>
		.s0 { fill: #000000 } 
	</style>
	<g id="Left">
		<g id="L">
			<g id="&lt;Group&gt;">
				<g id="&lt;Group&gt;">
					<path id="&lt;Path&gt;" class="s0" d="m395.6 2344.6l-305.9 366.3h-19.3l298-406.8 169.1-48 380-303.1 325.4-642.8 156 103.3 362.6-400 238.7-559.5 461.4 642.4 103.2 436 26.3 27.5-32.9-3.2-56.9 14.8-5.2-5.4-90.8-451.1-393.7-573-211.8 497.6-396 427.9-146.5-87.1-303.2 609.3-403.3 316.2z"/>
					<path id="&lt;Path&gt;" class="s0" d="m3930.9 2710.9h-24.4l-431.3-452.9-535.3-224.8-192.2-205.9 62.1-38.1 178.5 187 519.4 216.9z"/>
				</g>
			</g>
			<g id="&lt;Group&gt;">
				<path id="&lt;Compound Path&gt;" fill-rule="evenodd" class="s0" d="m2811 1655.2l-32.2 84.9-161.9 99.4-308.1 378.8-157.6 413.8 111.8 37.9 35.1 40.9h-235.8l-103.2-368.6 127.1-215.3-158.8 190.9-413.8 58-229.3 252.5 80.6 30.5 26 52h-237.9l-27.4-43.4 187.6-609.9-78.6-21 347.1-232.4 383.4 4.1 189.2-85.9 408.5-107 209.5 20.9zm-312.2 85.3l-64.7-9.7-1.5-32.9 53.1-41.5-69.1 33.9-4.8 56zm141.4-95l-38-5-39.2 24 26.6-3.8 27.8 6.4z"/>
			</g>
			<path id="&lt;Path&gt;" class="s0" d="m3630.3 1363.1l-60.9-41.6-27.7 366.4-27.7-366.4-60.9 41.6 42.1-61.6-229.1-27 229.1-26.9-42.1-61.6 60.9 41.6 27.7-366.4 27.7 366.4 60.9-41.6-42.1 61.6 229.1 26.9-229.1 27z"/>
			<g id="&lt;Group&gt;">
				<path id="&lt;Path&gt;" class="s0" d="m1528.2 2403.2l222.4-31.1-11.3 256.4 80.5 40.8 26.9 41.6h-211.3l-119.1-294.2z"/>
				<path id="&lt;Path&gt;" class="s0" d="m2334.2 2233.3l19.9-25.7-97.8 402.5 109.5 44.3 39.5 56.5h-69l-56.5-65.8-90.8-30.8z"/>
			</g>
			<g id="&lt;Group&gt;">
				<path id="&lt;Compound Path&gt;" class="s0" d="m388.1 3118v56.4h-354.6l-33.5-34.1v-323.8l33.5-34.1h354.6v56.4h-331.7v111.1h332.3v57h-332.3v111.1z"/>
				<path id="&lt;Compound Path&gt;" class="s0" d="m860 3025.9v148.5h-56.4v-167.5h-275.3v167.5h-56.4v-148.5l47.4-47.5-47.4-47.5v-148.5h56.4v167.5h275.3v-167.5h56.4v148.5l-47.5 47.5z"/>
				<path id="&lt;Compound Path&gt;" fill-rule="evenodd" class="s0" d="m1331.8 2816.5v156.3l-33.5 34.1h-298.7v167.5h-56.4v-392h355.1zm-332.2 133.5h275.8v-111.2h-275.8z"/>
				<path id="&lt;Compound Path&gt;" class="s0" d="m1803.1 3118v56.4h-354.6l-33.5-34.1v-323.8l33.5-34.1h354.6v56.4h-331.7v111.1h332.3v57h-332.3v111.1z"/>
				<path id="&lt;Compound Path&gt;" fill-rule="evenodd" class="s0" d="m2288.9 2816.5v323.8l-34 34.1h-354.6v-392h354.6zm-331.7 301.5h274.7v-279.2h-274.7z"/>
				<path id="&lt;Compound Path&gt;" class="s0" d="m2385.5 2782.4h56.4v392h-56.4z"/>
				<path id="&lt;Compound Path&gt;" class="s0" d="m2915.5 2781.8v57h-164.8v335h-56.4v-335.6l-169.2 0.6v-56.4z"/>
				<path id="&lt;Compound Path&gt;" class="s0" d="m2998.7 2782.4h56.4v392h-56.4z"/>
				<path id="&lt;Compound Path&gt;" fill-rule="evenodd" class="s0" d="m3526.9 2816.5v323.8l-33.5 34.1h-321.6l-33.5-34.1v-323.8l33.5-34.1h321.6zm-332.3 301.5h275.9v-279.2h-275.9z"/>
				<path id="&lt;Compound Path&gt;" class="s0" d="m4000.4 2816.5v359h-56.4v-336.7h-277.5v335.6h-56.4v-392h356.3z"/>
			</g>
			<g id="&lt;Group&gt;">
				<path id="&lt;Compound Path&gt;" class="s0" d="m584.9 3345.9c-8.9-15-20.4-22.7-38.6-22.7-19.2 0-40.2 13.1-40.2 34.2 0 18.8 18.5 28.7 33.5 34.4l17.2 6.7c34.1 13.4 59.7 32.3 59.7 72.5 0 43.7-33.8 74.9-76.9 74.9-39 0-69.3-28.7-74.4-67.3l30.3-6.4c-0.3 26.5 20.8 45.7 46.6 45.7 25.9 0 44.4-21.7 44.4-46.9 0-25.9-20.8-37.1-41.5-45.7l-16.6-7c-27.4-11.8-52.3-27.4-52.3-60.9 0-39 34.4-62.3 70.8-62.3 26.8 0 48.8 13.1 61.9 36.4z"/>
				<path id="&lt;Compound Path&gt;" class="s0" d="m1020.4 3540.8h-29.9v-213.1h-57.2v-27.5h144.3v27.5h-57.2z"/>
				<path id="&lt;Compound Path&gt;" class="s0" d="m1433.4 3300.2v142c0 39.3 11.8 75.7 58 75.7 46.3 0 58.1-36.4 58.1-75.7v-142h30v152.2c0 53-32.9 93.5-88.1 93.5-55.2 0-88-40.5-88-93.5v-152.2z"/>
				<path id="&lt;Compound Path&gt;" fill-rule="evenodd" class="s0" d="m1924.8 3300.2h49.7c73.7 0 135 39 135 119.1 0 82-60 121.5-135.9 121.5h-48.8zm29.9 213.2h10.6c61.2 0 114.2-23 114.2-92.9 0-70.2-53-92.8-114.2-92.8h-10.6z"/>
				<path id="&lt;Compound Path&gt;" class="s0" d="m2444.9 3300.2h30v240.6h-30z"/>
				<path id="&lt;Compound Path&gt;" fill-rule="evenodd" class="s0" d="m3061.4 3420.5c0 71.5-56.5 125.4-126.1 125.4-69.5 0-126-53.9-126-125.4 0-68.9 57.1-125.4 126-125.4 68.9 0 126.1 56.5 126.1 125.4zm-30 0c0-52.9-39.6-97.3-96.1-97.3-56.5 0-96 44.4-96 97.3 0 54.9 44 97.4 96 97.4 52 0 96.1-42.5 96.1-97.4z"/>
				<path id="&lt;Compound Path&gt;" class="s0" d="m3503.6 3345.9c-8.9-15-20.4-22.7-38.6-22.7-19.1 0-40.2 13.1-40.2 34.2 0 18.8 18.5 28.7 33.5 34.4l17.2 6.7c34.2 13.4 59.7 32.3 59.7 72.5 0 43.7-33.8 74.9-76.9 74.9-38.9 0-69.2-28.7-74.3-67.3l30.3-6.4c-0.3 26.5 20.7 45.7 46.6 45.7 25.8 0 44.3-21.7 44.3-46.9 0-25.9-20.7-37.1-41.5-45.7l-16.6-7c-27.4-11.8-52.3-27.4-52.3-60.9 0-39 34.5-62.3 70.9-62.3 26.8 0 48.8 13.1 61.9 36.4z"/>
			</g>
		</g>
	</g>
</svg>