<svg version="1.2" xmlns="http://www.w3.org/2000/svg" viewBox="0 0 4000 4000" width="4000" height="4000">
	<title>expedition-ai</title>
	<style>
		.s0 { fill: #000000 } 
		.s1 { fill: #fefefe } 
	</style>
	<g id="Right">
		<path id="&lt;Path&gt;" class="s0" d="m0 0h4000v4000h-4000z"/>
		<g id="R">
			<g id="&lt;Group&gt;">
				<g id="&lt;Group&gt;">
					<path id="&lt;Path&gt;" class="s1" d="m893.7 2237.6l-210.9 252.5h-13.3l205.4-280.4 116.7-33.1 261.9-209 224.4-443.2 107.5 71.3 250-275.8 164.6-385.8 318.1 442.9 71.2 300.7 18.1 18.9-22.7-2.2-39.2 10.2-3.6-3.7-62.6-311.1-271.5-395-146 343.1-273 295-101-60-209.1 420-278 218z"/>
					<path id="&lt;Path&gt;" class="s1" d="m3331.1 2490.1h-16.8l-297.4-312.2-369-155-132.6-141.9 42.9-26.3 123 128.9 358.1 149.5z"/>
				</g>
			</g>
			<g id="&lt;Group&gt;">
				<path id="&lt;Compound Path&gt;" fill-rule="evenodd" class="s1" d="m2559 1762.3l-22.2 58.5-111.6 68.6-212.4 261.1-108.7 285.3 77.1 26.2 24.2 28.1h-162.6l-71.1-254.1 87.6-148.4-109.5 131.6-285.3 40-158.1 173.1 55.6 22 25.9 35.8h-172l-18.9-29.9 129.3-420.5-54.2-14.5 239.3-160.1 264.4 2.8 130.4-59.3 281.7-73.7 144.4 14.3zm-215.2 58.9l-44.7-6.7-1-22.7 36.7-28.6-47.7 23.3-3.3 38.7zm97.5-65.5l-26.2-3.5-27.1 16.6 18.4-2.6 19.2 4.4z"/>
			</g>
			<path id="&lt;Path&gt;" class="s1" d="m3123.5 1560.9l-42-28.7-19.1 252.7-19.1-252.7-42 28.7 29-42.5-157.9-18.5 157.9-18.6-29-42.5 42 28.7 19.1-252.6 19.1 252.6 42-28.7-29 42.5 157.9 18.6-157.9 18.5z"/>
			<g id="&lt;Group&gt;">
				<path id="&lt;Path&gt;" class="s1" d="m1674.6 2278l153.3-21.4-7.8 176.7 55.5 28.2 18.6 28.6h-145.7l-82.1-202.8z"/>
				<path id="&lt;Path&gt;" class="s1" d="m2230.2 2160.9l13.8-17.8-67.4 277.5 75.4 32.6 27.3 36.9h-47.6l-38.9-45.3-62.6-21.3z"/>
			</g>
			<g id="&lt;Group&gt;">
				<path id="&lt;Compound Path&gt;" class="s1" d="m888.5 2770.8v38.9h-244.5l-23.1-23.5v-223.3l23.1-23.5h244.5v38.9h-228.7v76.6h229.1v39.3h-229.1v76.6z"/>
				<path id="&lt;Compound Path&gt;" class="s1" d="m1213.8 2707.3v102.4h-38.8v-115.5h-189.8v115.5h-38.9v-102.4l32.7-32.7-32.7-32.7v-102.5h38.9v115.5h189.8v-115.5h38.8v102.5l-32.7 32.7z"/>
				<path id="&lt;Compound Path&gt;" fill-rule="evenodd" class="s1" d="m1539.2 2562.9v107.8l-23.1 23.5h-206v115.5h-38.9v-270.3h244.9zm-229.1 92.1h190.2v-76.7h-190.2z"/>
				<path id="&lt;Compound Path&gt;" class="s1" d="m1864.1 2770.8v38.9h-244.5l-23.1-23.5v-223.3l23.1-23.5h244.5v38.9h-228.7v76.6h229.1v39.3h-229.1v76.6z"/>
				<path id="&lt;Compound Path&gt;" fill-rule="evenodd" class="s1" d="m2199 2562.9v223.3l-23.4 23.5h-244.5v-270.3h244.5zm-228.7 207.9h189.4v-192.5h-189.4z"/>
				<path id="&lt;Compound Path&gt;" class="s1" d="m2304.5 2539.4v270.3h-38.9v-270.3z"/>
				<path id="&lt;Compound Path&gt;" class="s1" d="m2631 2539.1v39.2h-113.6v231h-38.8v-231.4l-116.7 0.4v-38.9z"/>
				<path id="&lt;Compound Path&gt;" class="s1" d="m2727.3 2539.4v270.3h-38.9v-270.3z"/>
				<path id="&lt;Compound Path&gt;" fill-rule="evenodd" class="s1" d="m3052.6 2562.9v223.3l-23.1 23.5h-221.8l-23.1-23.5v-223.3l23.1-23.5h221.8zm-229.1 207.9h190.2v-192.5h-190.2z"/>
				<path id="&lt;Compound Path&gt;" class="s1" d="m3379.1 2562.9v247.6h-38.9v-232.2h-191.4v231.4h-38.9v-270.3h245.7z"/>
			</g>
			<g id="&lt;Group&gt;">
				<path id="&lt;Compound Path&gt;" class="s1" d="m1024.2 2927.9c-6.2-10.3-14.1-15.6-26.6-15.6-13.2 0-27.7 9-27.7 23.6 0 12.9 12.7 19.8 23.1 23.7l11.8 4.6c23.6 9.3 41.2 22.3 41.2 50 0 30.1-23.3 51.7-53 51.7-26.9 0-47.8-19.8-51.3-46.4l20.9-4.4c-0.2 18.2 14.3 31.4 32.1 31.4 17.8 0 30.6-14.9 30.6-32.3 0-17.8-14.3-25.5-28.6-31.5l-11.4-4.8c-19-8.2-36.1-18.9-36.1-42 0-26.9 23.7-42.9 48.8-42.9 18.5 0 33.7 9 42.7 25z"/>
				<path id="&lt;Compound Path&gt;" class="s1" d="m1324.5 3062.4h-20.7v-147h-39.4v-18.9h99.5v18.9h-39.4z"/>
				<path id="&lt;Compound Path&gt;" class="s1" d="m1609.2 2896.5v97.9c0 27 8.1 52.1 40 52.1 31.9 0 40.1-25.1 40.1-52.1v-97.9h20.6v104.9c0 36.5-22.6 64.5-60.7 64.5-38 0-60.7-28-60.7-64.5v-104.9z"/>
				<path id="&lt;Compound Path&gt;" fill-rule="evenodd" class="s1" d="m1948 2896.5h34.3c50.8 0 93.1 26.8 93.1 82 0 56.6-41.4 83.9-93.8 83.9h-33.6zm20.7 146.9h7.2c42.3 0 78.8-15.8 78.8-64 0-48.4-36.5-64-78.8-64h-7.2z"/>
				<path id="&lt;Compound Path&gt;" class="s1" d="m2327.2 3062.4h-20.6v-165.9h20.6z"/>
				<path id="&lt;Compound Path&gt;" fill-rule="evenodd" class="s1" d="m2731.6 2979.4c0 49.3-38.9 86.5-86.9 86.5-48 0-86.9-37.2-86.9-86.5 0-47.5 39.4-86.4 86.9-86.4 47.5 0 86.9 38.9 86.9 86.4zm-20.7 0c0-36.5-27.3-67.1-66.2-67.1-38.9 0-66.2 30.6-66.2 67.1 0 37.9 30.3 67.1 66.2 67.1 35.9 0 66.2-29.2 66.2-67.1z"/>
				<path id="&lt;Compound Path&gt;" class="s1" d="m3036.5 2927.9c-6.1-10.3-14.1-15.6-26.6-15.6-13.2 0-27.7 9-27.7 23.6 0 12.9 12.7 19.8 23.1 23.7l11.9 4.6c23.5 9.3 41.1 22.3 41.1 50 0 30.1-23.3 51.7-53 51.7-26.9 0-47.8-19.8-51.3-46.4l20.9-4.4c-0.2 18.2 14.3 31.4 32.1 31.4 17.9 0 30.6-14.9 30.6-32.3 0-17.8-14.3-25.5-28.6-31.5l-11.4-4.8c-18.9-8.2-36.1-18.9-36.1-42 0-26.9 23.8-42.9 48.8-42.9 18.5 0 33.7 9 42.7 25z"/>
			</g>
		</g>
	</g>
</svg>